<svg width="22" height="16" viewBox="0 0 22 16" fill="none" xmlns="http://www.w3.org/2000/svg">
<path fill-rule="evenodd" clip-rule="evenodd" d="M2.75511 7.46921C2.63015 7.72408 2.53674 7.94079 2.47151 8.10301C2.53796 8.25452 2.63149 8.45435 2.75489 8.68853C3.05437 9.25683 3.52418 10.0167 4.20108 10.7778C5.54388 12.2875 7.69481 13.8014 11.0164 13.8557C14.3164 13.9097 16.4531 12.4079 17.7931 10.8742C18.4692 10.1005 18.9393 9.31998 19.2396 8.73297C19.3679 8.48216 19.4641 8.26891 19.5312 8.10966C19.4659 7.94674 19.3716 7.72758 19.2449 7.46921C18.9509 6.86961 18.4883 6.07117 17.8168 5.27618C16.4858 3.70028 14.3462 2.14285 11 2.14285C7.65384 2.14285 5.51428 3.70028 4.18321 5.27618C3.51174 6.07117 3.04911 6.86961 2.75511 7.46921ZM21.554 7.81915C21.5542 7.81966 21.5543 7.82014 20.6 8.11898C21.5491 8.43415 21.5489 8.43462 21.5487 8.43512L21.5484 8.43626L21.5474 8.439L21.5449 8.44637L21.5373 8.4685C21.531 8.48649 21.5223 8.51087 21.5112 8.54123C21.4888 8.60193 21.4565 8.68662 21.4135 8.79183C21.3275 9.00208 21.1984 9.29541 21.0201 9.64387C20.6646 10.3387 20.1078 11.2648 19.2992 12.1902C17.67 14.0548 15.0067 15.9212 10.9837 15.8555C6.98217 15.79 4.33309 13.9356 2.70666 12.107C1.89895 11.1988 1.34183 10.297 0.98554 9.62094C0.806922 9.28199 0.677384 8.99711 0.591045 8.79281C0.54784 8.69058 0.515345 8.60827 0.49284 8.54917C0.481584 8.51961 0.472817 8.49583 0.46645 8.47823L0.458684 8.45652L0.456127 8.44923L0.455177 8.44649L0.454783 8.44535C0.454608 8.44485 0.454443 8.44437 1.40002 8.11898C0.445723 7.82014 0.445873 7.81966 0.446032 7.81915L0.446392 7.81801L0.447269 7.81524L0.449653 7.80778L0.456974 7.78533C0.463001 7.76709 0.471343 7.74232 0.482096 7.71147C0.503597 7.6498 0.53478 7.56368 0.576434 7.45662C0.659672 7.24269 0.785161 6.94399 0.959358 6.58872C1.30671 5.88029 1.8537 4.9347 2.6553 3.98565C4.27039 2.07349 6.93082 0.142853 11 0.142853C15.0692 0.142853 17.7297 2.07349 19.3447 3.98565C20.1464 4.9347 20.6933 5.88029 21.0407 6.58872C21.2149 6.94399 21.3404 7.24269 21.4236 7.45662C21.4653 7.56368 21.4965 7.6498 21.518 7.71147C21.5287 7.74232 21.537 7.76709 21.5431 7.78533L21.5504 7.80778L21.5528 7.81524L21.5537 7.81801L21.554 7.81915ZM20.6 8.11898L21.5543 7.82014L21.6507 8.12799L21.5491 8.43415L20.6 8.11898ZM0.445723 7.82014L1.40002 8.11898L0.454443 8.44437L0.347534 8.13368L0.445723 7.82014Z" fill="#9094A0"/>
<path fill-rule="evenodd" clip-rule="evenodd" d="M9.59998 8.02916C9.59998 7.31722 10.2009 6.6938 11 6.6938C11.7991 6.6938 12.4 7.31722 12.4 8.02916C12.4 8.74109 11.7991 9.36452 11 9.36452C10.2009 9.36452 9.59998 8.74109 9.59998 8.02916ZM11 4.6938C9.14812 4.6938 7.59998 6.16153 7.59998 8.02916C7.59998 9.89679 9.14812 11.3645 11 11.3645C12.8518 11.3645 14.4 9.89679 14.4 8.02916C14.4 6.16153 12.8518 4.6938 11 4.6938Z" fill="#9094A0"/>
</svg>
