<svg width="24" height="24" viewBox="0 0 24 24" fill="none" xmlns="http://www.w3.org/2000/svg">
<path fill-rule="evenodd" clip-rule="evenodd" d="M3.75511 11.4692C3.63015 11.7241 3.53674 11.9408 3.47151 12.103C3.53796 12.2545 3.63149 12.4544 3.75489 12.6885C4.05437 13.2568 4.52418 14.0167 5.20108 14.7778C6.54388 16.2875 8.69481 17.8014 12.0164 17.8557C15.3164 17.9097 17.4531 16.4079 18.7931 14.8742C19.4692 14.1005 19.9393 13.32 20.2396 12.733C20.3679 12.4822 20.4641 12.2689 20.5312 12.1097C20.4659 11.9467 20.3716 11.7276 20.2449 11.4692C19.9509 10.8696 19.4883 10.0712 18.8168 9.27618C17.4858 7.70028 15.3462 6.14285 12 6.14285C8.65384 6.14285 6.51428 7.70028 5.18321 9.27618C4.51174 10.0712 4.04911 10.8696 3.75511 11.4692ZM22.554 11.8192C22.5542 11.8197 22.5543 11.8201 21.6 12.119C22.5491 12.4341 22.5489 12.4346 22.5487 12.4351L22.5484 12.4363L22.5474 12.439L22.5449 12.4464L22.5373 12.4685C22.531 12.4865 22.5223 12.5109 22.5112 12.5412C22.4888 12.6019 22.4565 12.6866 22.4135 12.7918C22.3275 13.0021 22.1984 13.2954 22.0201 13.6439C21.6646 14.3387 21.1078 15.2648 20.2992 16.1902C18.67 18.0548 16.0067 19.9212 11.9837 19.8555C7.98217 19.79 5.33309 17.9356 3.70666 16.107C2.89895 15.1988 2.34183 14.297 1.98554 13.6209C1.80692 13.282 1.67738 12.9971 1.59104 12.7928C1.54784 12.6906 1.51534 12.6083 1.49284 12.5492C1.48158 12.5196 1.47282 12.4958 1.46645 12.4782L1.45868 12.4565L1.45613 12.4492L1.45518 12.4465L1.45478 12.4454C1.45461 12.4448 1.45444 12.4444 2.40002 12.119C1.44572 11.8201 1.44587 11.8197 1.44603 11.8192L1.44639 11.818L1.44727 11.8152L1.44965 11.8078L1.45697 11.7853C1.463 11.7671 1.47134 11.7423 1.4821 11.7115C1.5036 11.6498 1.53478 11.5637 1.57643 11.4566C1.65967 11.2427 1.78516 10.944 1.95936 10.5887C2.30671 9.88029 2.8537 8.9347 3.6553 7.98565C5.27039 6.07349 7.93082 4.14285 12 4.14285C16.0692 4.14285 18.7297 6.07349 20.3447 7.98565C21.1464 8.9347 21.6933 9.88029 22.0407 10.5887C22.2149 10.944 22.3404 11.2427 22.4236 11.4566C22.4653 11.5637 22.4965 11.6498 22.518 11.7115C22.5287 11.7423 22.537 11.7671 22.5431 11.7853L22.5504 11.8078L22.5528 11.8152L22.5537 11.818L22.554 11.8192ZM21.6 12.119L22.5543 11.8201L22.6507 12.128L22.5491 12.4341L21.6 12.119ZM1.44572 11.8201L2.40002 12.119L1.45444 12.4444L1.34753 12.1337L1.44572 11.8201Z" fill="#9094A0"/>
<path fill-rule="evenodd" clip-rule="evenodd" d="M10.6 12.0292C10.6 11.3172 11.2009 10.6938 12 10.6938C12.7991 10.6938 13.4 11.3172 13.4 12.0292C13.4 12.7411 12.7991 13.3645 12 13.3645C11.2009 13.3645 10.6 12.7411 10.6 12.0292ZM12 8.6938C10.1481 8.6938 8.59998 10.1615 8.59998 12.0292C8.59998 13.8968 10.1481 15.3645 12 15.3645C13.8518 15.3645 15.4 13.8968 15.4 12.0292C15.4 10.1615 13.8518 8.6938 12 8.6938Z" fill="#9094A0"/>
</svg>
