<svg width="22" height="22" viewBox="0 0 22 22" fill="none" xmlns="http://www.w3.org/2000/svg">
<mask id="mask0_2028_65" style="mask-type:luminance" maskUnits="userSpaceOnUse" x="0" y="0" width="22" height="22">
<path d="M21.2526 8.9088H11.2679V13.0425H17.0152C16.4794 15.6687 14.2389 17.1763 11.2679 17.1763C7.76101 17.1763 4.93605 14.3556 4.93605 10.8541C4.93605 7.35257 7.76101 4.5319 11.2679 4.5319C12.7778 4.5319 14.1415 5.06686 15.2131 5.94224L18.3303 2.82977C16.4307 1.17628 13.9954 0.154999 11.2679 0.154999C5.3257 0.154999 0.55249 4.92096 0.55249 10.8541C0.55249 16.7872 5.3257 21.5532 11.2679 21.5532C16.6256 21.5532 21.4962 17.6626 21.4962 10.8541C21.4962 10.2219 21.3988 9.54102 21.2526 8.9088Z" fill="white"/>
</mask>
<g mask="url(#mask0_2028_65)">
<path d="M-0.421631 17.1763V4.53189L7.85843 10.8541L-0.421631 17.1763Z" fill="#FBBC05"/>
</g>
<mask id="mask1_2028_65" style="mask-type:luminance" maskUnits="userSpaceOnUse" x="0" y="0" width="22" height="22">
<path d="M21.2526 8.9088H11.2679V13.0425H17.0152C16.4794 15.6687 14.2389 17.1763 11.2679 17.1763C7.76101 17.1763 4.93605 14.3556 4.93605 10.8541C4.93605 7.35257 7.76101 4.5319 11.2679 4.5319C12.7778 4.5319 14.1415 5.06686 15.2131 5.94224L18.3303 2.82977C16.4307 1.17628 13.9954 0.154999 11.2679 0.154999C5.3257 0.154999 0.55249 4.92096 0.55249 10.8541C0.55249 16.7872 5.3257 21.5532 11.2679 21.5532C16.6256 21.5532 21.4962 17.6626 21.4962 10.8541C21.4962 10.2219 21.3988 9.54102 21.2526 8.9088Z" fill="white"/>
</mask>
<g mask="url(#mask1_2028_65)">
<path d="M-0.421631 4.5319L7.85843 10.8541L11.2679 7.88754L22.9574 5.99087V-0.817642H-0.421631V4.5319Z" fill="#EA4335"/>
</g>
<mask id="mask2_2028_65" style="mask-type:luminance" maskUnits="userSpaceOnUse" x="0" y="0" width="22" height="22">
<path d="M21.2526 8.9088H11.2679V13.0425H17.0152C16.4794 15.6687 14.2389 17.1763 11.2679 17.1763C7.76101 17.1763 4.93605 14.3556 4.93605 10.8541C4.93605 7.35257 7.76101 4.5319 11.2679 4.5319C12.7778 4.5319 14.1415 5.06686 15.2131 5.94224L18.3303 2.82977C16.4307 1.17628 13.9954 0.154999 11.2679 0.154999C5.3257 0.154999 0.55249 4.92096 0.55249 10.8541C0.55249 16.7872 5.3257 21.5532 11.2679 21.5532C16.6256 21.5532 21.4962 17.6626 21.4962 10.8541C21.4962 10.2219 21.3988 9.54102 21.2526 8.9088Z" fill="white"/>
</mask>
<g mask="url(#mask2_2028_65)">
<path d="M-0.421631 17.1763L14.1902 5.99087L18.038 6.47719L22.9574 -0.817642V22.5258H-0.421631V17.1763Z" fill="#34A853"/>
</g>
<mask id="mask3_2028_65" style="mask-type:luminance" maskUnits="userSpaceOnUse" x="0" y="0" width="22" height="22">
<path d="M21.2526 8.9088H11.2679V13.0425H17.0152C16.4794 15.6687 14.2389 17.1763 11.2679 17.1763C7.76101 17.1763 4.93605 14.3556 4.93605 10.8541C4.93605 7.35257 7.76101 4.5319 11.2679 4.5319C12.7778 4.5319 14.1415 5.06686 15.2131 5.94224L18.3303 2.82977C16.4307 1.17628 13.9954 0.154999 11.2679 0.154999C5.3257 0.154999 0.55249 4.92096 0.55249 10.8541C0.55249 16.7872 5.3257 21.5532 11.2679 21.5532C16.6256 21.5532 21.4962 17.6626 21.4962 10.8541C21.4962 10.2219 21.3988 9.54102 21.2526 8.9088Z" fill="white"/>
</mask>
<g mask="url(#mask3_2028_65)">
<path d="M22.9573 22.5258L7.85841 10.8541L5.91016 9.39511L22.9573 4.53189V22.5258Z" fill="#4285F4"/>
</g>
</svg>
