<svg width="20" height="20" viewBox="0 0 20 20" fill="none" xmlns="http://www.w3.org/2000/svg">
<g clip-path="url(#clip0_2078_248)">
<path fill-rule="evenodd" clip-rule="evenodd" d="M3 2H6C6.55228 2 7 2.44772 7 3V17C7 17.5523 6.55229 18 6 18H3C2.44772 18 2 17.5523 2 17V3C2 2.44772 2.44771 2 3 2ZM0 3C0 1.34315 1.34315 0 3 0H6C7.65685 0 9 1.34315 9 3V17C9 18.6569 7.65685 20 6 20H3C1.34315 20 0 18.6569 0 17V3ZM14 2H17C17.5523 2 18 2.44772 18 3V10C18 10.5523 17.5523 11 17 11H14C13.4477 11 13 10.5523 13 10V3C13 2.44772 13.4477 2 14 2ZM11 3C11 1.34315 12.3431 0 14 0H17C18.6569 0 20 1.34315 20 3V10C20 11.6569 18.6569 13 17 13H14C12.3431 13 11 11.6569 11 10V3Z" fill="white"/>
</g>
<defs>
<clipPath id="clip0_2078_248">
<rect width="20" height="20" fill="white"/>
</clipPath>
</defs>
</svg>
