<svg width="152" height="140" viewBox="0 0 152 140" fill="none" xmlns="http://www.w3.org/2000/svg">
<rect x="111" y="23" width="16" height="36" rx="4" fill="black"/>
<path fill-rule="evenodd" clip-rule="evenodd" d="M131.509 71.1081C125.686 46.3947 103.491 28 77.0001 28C50.5088 28 28.3139 46.3947 22.4912 71.1081C23.6516 71.0364 24.8216 71 26.0001 71C48.6671 71 68.1887 84.4672 77.0001 103.837C85.8115 84.4672 105.333 71 128 71C129.179 71 130.349 71.0364 131.509 71.1081Z" fill="#CB88FF"/>
<path d="M6.99257 74.0074L74.5858 6.41421C75.3668 5.63316 76.6332 5.63317 77.4142 6.41422L144.74 73.7405C146.294 75.2942 144.529 77.9113 142.485 77.1059C92.9081 57.5762 60.8362 57.6728 9.21826 77.3631C7.18017 78.1405 5.45013 75.5499 6.99257 74.0074Z" fill="#CB88FF" stroke="black" stroke-width="10"/>
<path fill-rule="evenodd" clip-rule="evenodd" d="M32 56H120L120 64H127V66H129V66.2929L129.207 66.5L129.707 66L129.89 66.1832L129.93 66.1438L130.637 66.8509L130.366 67.1221L130.39 67.1468L130.733 66.8038L132.93 69L132.937 69.0074L133.035 69.1049L133.041 69.0984L133.893 69.951L133 70.8445V71H130V85H23V71H21V70.7622L20.7601 71.002L18.9155 69.1574L20.1574 67.9155L20.16 67.9181L20.8925 67.1855L20.9999 67.2929L21.5 66.7929L22 67.2929V67H23V66H25V64H32V67H32V56Z" fill="#CB88FF"/>
<mask id="path-5-inside-1_2009_19" fill="white">
<path fill-rule="evenodd" clip-rule="evenodd" d="M22.4911 71.1081C23.6515 71.0364 24.8215 71 26 71C56.9279 71 82 96.0721 82 127C82 131.437 81.4841 135.753 80.5089 139.892C79.3485 139.964 78.1785 140 77 140C46.0721 140 21 114.928 21 84C21 79.5633 21.516 75.2471 22.4911 71.1081Z"/>
</mask>
<path fill-rule="evenodd" clip-rule="evenodd" d="M22.4911 71.1081C23.6515 71.0364 24.8215 71 26 71C56.9279 71 82 96.0721 82 127C82 131.437 81.4841 135.753 80.5089 139.892C79.3485 139.964 78.1785 140 77 140C46.0721 140 21 114.928 21 84C21 79.5633 21.516 75.2471 22.4911 71.1081Z" fill="#EED7FF"/>
<path d="M22.4911 71.1081L21.8741 61.1272L14.4609 61.5855L12.7576 68.8149L22.4911 71.1081ZM80.5089 139.892L81.1259 149.873L88.5391 149.415L90.2424 142.185L80.5089 139.892ZM23.1082 81.0891C24.0633 81.03 25.0275 81 26 81V61C24.6155 61 23.2398 61.0428 21.8741 61.1272L23.1082 81.0891ZM26 81C51.4051 81 72 101.595 72 127H92C92 90.5492 62.4508 61 26 61V81ZM72 127C72 130.659 71.5748 134.206 70.7754 137.599L90.2424 142.185C91.3933 137.3 92 132.214 92 127H72ZM79.8918 129.911C78.9367 129.97 77.9725 130 77 130V150C78.3845 150 79.7603 149.957 81.1259 149.873L79.8918 129.911ZM77 130C51.5949 130 31 109.405 31 84H11C11 120.451 40.5492 150 77 150V130ZM31 84C31 80.341 31.4252 76.7943 32.2246 73.4014L12.7576 68.8149C11.6067 73.6999 11 78.7856 11 84H31Z" fill="black" mask="url(#path-5-inside-1_2009_19)"/>
<mask id="path-7-inside-2_2009_19" fill="white">
<path fill-rule="evenodd" clip-rule="evenodd" d="M77 140C107.928 140 133 114.928 133 84C133 79.5633 132.484 75.2471 131.509 71.1081C130.348 71.0364 129.178 71 128 71C97.0721 71 72 96.0721 72 127C72 131.437 72.516 135.753 73.4911 139.892C74.6515 139.964 75.8215 140 77 140Z"/>
</mask>
<path fill-rule="evenodd" clip-rule="evenodd" d="M77 140C107.928 140 133 114.928 133 84C133 79.5633 132.484 75.2471 131.509 71.1081C130.348 71.0364 129.178 71 128 71C97.0721 71 72 96.0721 72 127C72 131.437 72.516 135.753 73.4911 139.892C74.6515 139.964 75.8215 140 77 140Z" fill="#EED7FF"/>
<path d="M131.509 71.1081L141.242 68.8149L139.539 61.5855L132.126 61.1272L131.509 71.1081ZM73.4911 139.892L63.7576 142.185L65.4609 149.415L72.8741 149.873L73.4911 139.892ZM123 84C123 109.405 102.405 130 77 130V150C113.451 150 143 120.451 143 84H123ZM121.775 73.4014C122.575 76.7943 123 80.341 123 84H143C143 78.7856 142.393 73.6999 141.242 68.8149L121.775 73.4014ZM128 81C128.972 81 129.937 81.03 130.892 81.0891L132.126 61.1272C130.76 61.0428 129.384 61 128 61V81ZM82 127C82 101.595 102.595 81 128 81V61C91.5492 61 62 90.5492 62 127H82ZM83.2246 137.599C82.4252 134.206 82 130.659 82 127H62C62 132.214 62.6067 137.3 63.7576 142.185L83.2246 137.599ZM77 130C76.0275 130 75.0633 129.97 74.1082 129.911L72.8741 149.873C74.2398 149.957 75.6155 150 77 150V130Z" fill="black" mask="url(#path-7-inside-2_2009_19)"/>
</svg>
